<mxfile host="app.diagrams.net" modified="2023-11-30T06:16:13.627Z" agent="Mozilla/5.0 (X11; Linux x86_64) AppleWebKit/537.36 (KHTML, like Gecko) Chrome/118.0.0.0 Safari/537.36" version="22.1.5" etag="yWtSDKNHAmX9wtHFjFk7" type="github">
  <diagram name="第 1 页" id="Qw0erks-Yxoe5gQabG26">
    <mxGraphModel>
      <root>
        <mxCell id="0" />
        <mxCell id="1" parent="0" />
      </root>
    </mxGraphModel>
  </diagram>
</mxfile>
